<svg id="SvgjsSvg1001" width="288" height="288" xmlns="http://www.w3.org/2000/svg" version="1.1" xmlns:xlink="http://www.w3.org/1999/xlink" xmlns:svgjs="http://svgjs.com/svgjs"><defs id="SvgjsDefs1002"></defs><g id="SvgjsG1008" transform="matrix(1,0,0,1,0,0)"><svg xmlns="http://www.w3.org/2000/svg" aria-hidden="true" class="svg-inline--fa fa-pen-to-square" data-icon="pen-to-square" data-prefix="fas" viewBox="0 0 512 512" width="288" height="288"><path fill="#66ccff" d="M383.1 448H63.1V128h156.1l64-64H63.1C28.65 64 0 92.65 0 128v320c0 35.35 28.65 64 63.1 64h319.1c35.34 0 63.1-28.65 63.1-64l-.0039-220.1l-63.1 63.99V448zM497.9 42.19l-28.13-28.14c-18.75-18.75-49.14-18.75-67.88 0l-38.62 38.63l96.01 96.01l38.62-38.63C516.7 91.33 516.7 60.94 497.9 42.19zM147.3 274.4l-19.04 95.22c-1.678 8.396 5.725 15.8 14.12 14.12l95.23-19.04c4.646-.9297 8.912-3.213 12.26-6.562l186.8-186.8l-96.01-96.01L153.8 262.2C150.5 265.5 148.2 269.8 147.3 274.4z" class="colorcurrentColor svgShape"></path></svg></g></svg>